<svg viewBox="0 0 330 200" xmlns="http://www.w3.org/2000/svg"><g><g><g><g><g><line x1="48.875" y1="159.3" x2="43.875" y2="159.3" style="visibility: inherit;" fill="rgb(0, 0, 0)" stroke="rgb(204, 204, 204)" stroke-width="1px"></line><line x1="48.875" y1="141.60000000000002" x2="43.875" y2="141.60000000000002" style="visibility: inherit;" fill="rgb(0, 0, 0)" stroke="rgb(204, 204, 204)" stroke-width="1px"></line><line x1="48.875" y1="123.9" x2="43.875" y2="123.9" style="visibility: inherit;" fill="rgb(0, 0, 0)" stroke="rgb(204, 204, 204)" stroke-width="1px"></line><line x1="48.875" y1="106.20000000000002" x2="43.875" y2="106.20000000000002" style="visibility: inherit;" fill="rgb(0, 0, 0)" stroke="rgb(204, 204, 204)" stroke-width="1px"></line><line x1="48.875" y1="88.50000000000001" x2="43.875" y2="88.50000000000001" style="visibility: inherit;" fill="rgb(0, 0, 0)" stroke="rgb(204, 204, 204)" stroke-width="1px"></line><line x1="48.875" y1="70.8" x2="43.875" y2="70.8" style="visibility: inherit;" fill="rgb(0, 0, 0)" stroke="rgb(204, 204, 204)" stroke-width="1px"></line><line x1="48.875" y1="53.099999999999994" x2="43.875" y2="53.099999999999994" style="visibility: inherit;" fill="rgb(0, 0, 0)" stroke="rgb(204, 204, 204)" stroke-width="1px"></line><line x1="48.875" y1="35.400000000000034" x2="43.875" y2="35.400000000000034" style="visibility: inherit;" fill="rgb(0, 0, 0)" stroke="rgb(204, 204, 204)" stroke-width="1px"></line><line x1="48.875" y1="17.700000000000017" x2="43.875" y2="17.700000000000017" style="visibility: inherit;" fill="rgb(0, 0, 0)" stroke="rgb(204, 204, 204)" stroke-width="1px"></line><line x1="48.875" y1="0" x2="43.875" y2="0" style="visibility: inherit;" fill="rgb(0, 0, 0)" stroke="rgb(204, 204, 204)" stroke-width="1px"></line></g><g transform="translate(38.875, 0)"><text x="0" y="159.3" dx="0em" dy="0.3em" style="text-anchor: end; visibility: inherit; font-family: &quot;Helvetica Neue&quot;, sans-serif; font-size: 12px; font-weight: 200;" fill="rgb(50, 49, 63)" stroke="none" stroke-width="1px">0.08</text><text x="0" y="141.60000000000002" dx="0em" dy="0.3em" style="text-anchor: end; visibility: hidden; font-family: &quot;Helvetica Neue&quot;, sans-serif; font-size: 12px; font-weight: 200;" fill="rgb(50, 49, 63)" stroke="none" stroke-width="1px">0.09</text><text x="0" y="123.9" dx="0em" dy="0.3em" style="text-anchor: end; visibility: inherit; font-family: &quot;Helvetica Neue&quot;, sans-serif; font-size: 12px; font-weight: 200;" fill="rgb(50, 49, 63)" stroke="none" stroke-width="1px">0.1</text><text x="0" y="106.20000000000002" dx="0em" dy="0.3em" style="text-anchor: end; visibility: hidden; font-family: &quot;Helvetica Neue&quot;, sans-serif; font-size: 12px; font-weight: 200;" fill="rgb(50, 49, 63)" stroke="none" stroke-width="1px">0.11</text><text x="0" y="88.50000000000001" dx="0em" dy="0.3em" style="text-anchor: end; visibility: inherit; font-family: &quot;Helvetica Neue&quot;, sans-serif; font-size: 12px; font-weight: 200;" fill="rgb(50, 49, 63)" stroke="none" stroke-width="1px">0.12</text><text x="0" y="70.8" dx="0em" dy="0.3em" style="text-anchor: end; visibility: hidden; font-family: &quot;Helvetica Neue&quot;, sans-serif; font-size: 12px; font-weight: 200;" fill="rgb(50, 49, 63)" stroke="none" stroke-width="1px">0.13</text><text x="0" y="53.099999999999994" dx="0em" dy="0.3em" style="text-anchor: end; visibility: inherit; font-family: &quot;Helvetica Neue&quot;, sans-serif; font-size: 12px; font-weight: 200;" fill="rgb(50, 49, 63)" stroke="none" stroke-width="1px">0.14</text><text x="0" y="35.400000000000034" dx="0em" dy="0.3em" style="text-anchor: end; visibility: hidden; font-family: &quot;Helvetica Neue&quot;, sans-serif; font-size: 12px; font-weight: 200;" fill="rgb(50, 49, 63)" stroke="none" stroke-width="1px">0.15</text><text x="0" y="17.700000000000017" dx="0em" dy="0.3em" style="text-anchor: end; visibility: inherit; font-family: &quot;Helvetica Neue&quot;, sans-serif; font-size: 12px; font-weight: 200;" fill="rgb(50, 49, 63)" stroke="none" stroke-width="1px">0.16</text><text x="0" y="0" dx="0em" dy="0.3em" style="text-anchor: end; visibility: hidden; font-family: &quot;Helvetica Neue&quot;, sans-serif; font-size: 12px; font-weight: 200;" fill="rgb(50, 49, 63)" stroke="none" stroke-width="1px">0.17</text></g><line x1="48.875" y1="0" x2="48.875" y2="177" fill="rgb(0, 0, 0)" stroke="rgb(204, 204, 204)" stroke-width="1px"></line></g></g><g transform="translate(48, 0)" clip-path="url(#clip_0)"><clipPath id="clip_0"><rect width="281" height="177"></rect></clipPath><g><g><g><line x1="0" y1="0" x2="0" y2="177" fill="rgb(0, 0, 0)" stroke="rgb(60, 60, 60)" stroke-width="1px" opacity="0.25"></line><line x1="31.23611111111111" y1="0" x2="31.23611111111111" y2="177" fill="rgb(0, 0, 0)" stroke="rgb(60, 60, 60)" stroke-width="1px" opacity="0.25"></line><line x1="62.47222222222222" y1="0" x2="62.47222222222222" y2="177" fill="rgb(0, 0, 0)" stroke="rgb(60, 60, 60)" stroke-width="1px" opacity="0.25"></line><line x1="93.70833333333333" y1="0" x2="93.70833333333333" y2="177" fill="rgb(0, 0, 0)" stroke="rgb(60, 60, 60)" stroke-width="1px" opacity="0.25"></line><line x1="124.94444444444444" y1="0" x2="124.94444444444444" y2="177" fill="rgb(0, 0, 0)" stroke="rgb(60, 60, 60)" stroke-width="1px" opacity="0.25"></line><line x1="156.18055555555557" y1="0" x2="156.18055555555557" y2="177" fill="rgb(0, 0, 0)" stroke="rgb(60, 60, 60)" stroke-width="1px" opacity="0.25"></line><line x1="187.41666666666666" y1="0" x2="187.41666666666666" y2="177" fill="rgb(0, 0, 0)" stroke="rgb(60, 60, 60)" stroke-width="1px" opacity="0.25"></line><line x1="218.65277777777777" y1="0" x2="218.65277777777777" y2="177" fill="rgb(0, 0, 0)" stroke="rgb(60, 60, 60)" stroke-width="1px" opacity="0.25"></line><line x1="249.88888888888889" y1="0" x2="249.88888888888889" y2="177" fill="rgb(0, 0, 0)" stroke="rgb(60, 60, 60)" stroke-width="1px" opacity="0.25"></line><line x1="281.125" y1="0" x2="281.125" y2="177" fill="rgb(0, 0, 0)" stroke="rgb(60, 60, 60)" stroke-width="1px" opacity="0.25"></line></g><g><line x1="0" y1="159.3" x2="281.125" y2="159.3" fill="rgb(0, 0, 0)" stroke="rgb(60, 60, 60)" stroke-width="1px" opacity="0.25"></line><line x1="0" y1="141.60000000000002" x2="281.125" y2="141.60000000000002" fill="rgb(0, 0, 0)" stroke="rgb(60, 60, 60)" stroke-width="1px" opacity="0.25"></line><line x1="0" y1="123.9" x2="281.125" y2="123.9" fill="rgb(0, 0, 0)" stroke="rgb(60, 60, 60)" stroke-width="1px" opacity="0.25"></line><line x1="0" y1="106.20000000000002" x2="281.125" y2="106.20000000000002" fill="rgb(0, 0, 0)" stroke="rgb(60, 60, 60)" stroke-width="1px" opacity="0.25"></line><line x1="0" y1="88.50000000000001" x2="281.125" y2="88.50000000000001" fill="rgb(0, 0, 0)" stroke="rgb(60, 60, 60)" stroke-width="1px" opacity="0.25"></line><line x1="0" y1="70.8" x2="281.125" y2="70.8" fill="rgb(0, 0, 0)" stroke="rgb(60, 60, 60)" stroke-width="1px" opacity="0.25"></line><line x1="0" y1="53.099999999999994" x2="281.125" y2="53.099999999999994" fill="rgb(0, 0, 0)" stroke="rgb(60, 60, 60)" stroke-width="1px" opacity="0.25"></line><line x1="0" y1="35.400000000000034" x2="281.125" y2="35.400000000000034" fill="rgb(0, 0, 0)" stroke="rgb(60, 60, 60)" stroke-width="1px" opacity="0.25"></line><line x1="0" y1="17.700000000000017" x2="281.125" y2="17.700000000000017" fill="rgb(0, 0, 0)" stroke="rgb(60, 60, 60)" stroke-width="1px" opacity="0.25"></line><line x1="0" y1="0" x2="281.125" y2="0" fill="rgb(0, 0, 0)" stroke="rgb(60, 60, 60)" stroke-width="1px" opacity="0.25"></line></g></g></g><g><g><line x1="0" y1="300.9" x2="281.125" y2="300.9" fill="rgb(0, 0, 0)" stroke="rgb(153, 153, 153)" stroke-width="1.5px"></line></g></g><g><g><line x1="31.23611111111111" y1="0" x2="31.23611111111111" y2="177" fill="rgb(0, 0, 0)" stroke="rgb(153, 153, 153)" stroke-width="1.5px"></line></g></g><g><g><g><g><g><path stroke="rgb(0, 119, 187)" stroke-width="2px" d="M31.23611111111111,-33.63369899123421L31.23611111111111,2.79077911986289L31.23611111111111,-79.7470707075421L37.483333333333334,-41.76829790309955L37.483333333333334,11.122947688297614L37.483333333333334,-278.07438384370994L43.730555555555554,-33.764400558410415L43.730555555555554,12.28349772054574L43.730555555555554,9.346707311620946L43.730555555555554,18.312971665474237L43.730555555555554,-2.0088960230304167L43.730555555555554,17.33607180476622L43.730555555555554,-1.9071111967546983L56.225,-39.40461931256888L56.225,9.348280459472903L56.225,-24.112133320671717L62.47222222222222,-24.479103566382918L62.47222222222222,7.653347846761591L62.47222222222222,-23.8648309869198L87.46111111111111,-37.1728901287164L87.46111111111111,3.226379247889156L87.46111111111111,5.577250819435875L87.46111111111111,-45.67914993939925L99.95555555555556,-7.898963254339151L99.95555555555556,9.10784132144056L99.95555555555556,-41.89004138433219L112.45,-22.551108047443932L112.45,21.84057771022421L112.45,6.022474208207711L112.45,-15.86130898312814L112.45,-19.351791581607387L112.45,1.7888761370799102L112.45,44.057986412609864L112.45,-45.3763720690219L118.69722222222222,-55.84313458413399L118.69722222222222,1.2480694436399915L118.69722222222222,-12.185697725810456L118.69722222222222,12.540546181560813L118.69722222222222,10.541738270974918L118.69722222222222,-2.9971899537701745L124.94444444444444,-36.987700849512834L124.94444444444444,11.904764882481345L124.94444444444444,-54.078867979194996L124.94444444444444,-44.9630361974898L124.94444444444444,0.30427048083168984L124.94444444444444,47.03794173643604L124.94444444444444,-17.639364005055313L124.94444444444444,12.732857629700732L124.94444444444444,-27.943454062316306L124.94444444444444,-22.20644891153239L124.94444444444444,19.50697006410084L124.94444444444444,24.29523127809597L124.94444444444444,22.602243930908628L124.94444444444444,21.25828253436839L124.94444444444444,-119.82917484755069L131.19166666666666,-11.09663858856976L131.19166666666666,7.516054706298007L131.19166666666666,-14.796508030579872L137.4388888888889,-32.40422435690152L137.4388888888889,9.62179392284645L137.4388888888889,-152.6335131686539L143.6861111111111,-7.023424007540484L143.6861111111111,52.97901214835315L149.93333333333334,56.28845035599035L149.93333333333334,-63.31335140963574L149.93333333333334,-17.05195280349318L149.93333333333334,4.908256501936563L149.93333333333334,40.79569428979377L149.93333333333334,-25.400304094439633L149.93333333333334,-16.16368220175201L149.93333333333334,7.867745051831605L149.93333333333334,-2.81358923551403L149.93333333333334,-24.33559190295321L149.93333333333334,24.34073228560578L149.93333333333334,61.972945520417056L149.93333333333334,-35.10448970488537L149.93333333333334,-38.15936397600345L156.18055555555557,0.05924508876697132L156.18055555555557,-56.47782103117049L156.18055555555557,-19.52920780429764L156.18055555555557,37.31253610104608L156.18055555555557,18.155009768308958L156.18055555555557,-11.669547022639676L156.18055555555557,10.082269498551511L156.18055555555557,17.6835872321395L156.18055555555557,12.729439517800103L156.18055555555557,-13.199190403852356L156.18055555555557,-13.534916270911765L156.18055555555557,5.956312743937929L156.18055555555557,-42.855531690051606L156.18055555555557,19.279111151975144L156.18055555555557,-53.53529685671225L162.42777777777775,-38.92777396730929L162.42777777777775,17.23637490932728L162.42777777777775,-21.32070227226862L162.42777777777775,-1.3358431583449146L162.42777777777775,44.155265196215794L162.42777777777775,73.8521913469146L162.42777777777775,45.40973964573806L162.42777777777775,32.92807388807458L162.42777777777775,-30.32824757036491L162.42777777777775,-57.3530366091596L162.42777777777775,1.8834653610786063L162.42777777777775,41.071295939373954L168.67499999999998,41.66880290418149L168.67499999999998,-40.021660337988834L168.67499999999998,13.954849431428755L168.67499999999998,46.756299564548414L168.67499999999998,51.8945074709106L168.67499999999998,25.02336629580546L168.67499999999998,25.77101097077781L168.67499999999998,16.443789024178074L168.67499999999998,45.654041376724194L168.67499999999998,41.27399497211832L168.67499999999998,-14.00002532851181L168.67499999999998,-14.753124311094382L168.67499999999998,3.349984336778533L168.67499999999998,12.651332452824732L168.67499999999998,10.887722319919448L174.92222222222222,4.804517401789809L174.92222222222222,-86.27492645410581L174.92222222222222,-13.106170932605352L174.92222222222222,23.45583035698263L174.92222222222222,29.506343613569328L174.92222222222222,-44.472592242655566L174.92222222222222,-46.99743233874935L174.92222222222222,7.442948102024189L174.92222222222222,-52.828184810240884L181.16944444444445,-38.96675055629353L181.16944444444445,39.04315276261366L181.16944444444445,5.460848515726298L181.16944444444445,40.16708143442699L181.16944444444445,-19.127887812317425L187.41666666666666,-25.402007611094234L187.41666666666666,17.883896061481067L187.41666666666666,31.622439685285684L187.41666666666666,1.0682498448018123L187.41666666666666,-3.321597469274735L187.41666666666666,-72.85711576377616L187.41666666666666,0.4738059208675338L187.41666666666666,-33.150446931965064L187.41666666666666,-78.96031805541926L187.41666666666666,17.796522104341904L187.41666666666666,-183.51249450469066L187.41666666666666,-7.865538104490412L187.41666666666666,12.26169608347655L187.41666666666666,3.9645512694898173L193.6638888888889,45.47349152295487L193.6638888888889,51.48116019325671L193.6638888888889,4.791938570482841L193.6638888888889,13.169156064595796L193.6638888888889,17.116261497739572L193.6638888888889,41.131176204445154L193.6638888888889,19.135364131308904L193.6638888888889,-21.90833681096001L193.6638888888889,-16.306829010589013L193.6638888888889,9.930928123508068L199.91111111111113,-61.647136122873945L199.91111111111113,-18.803957330766877L199.91111111111113,5.137499420891089L199.91111111111113,0.26171787086119025L199.91111111111113,54.86858964623802L199.91111111111113,73.00488020933746L199.91111111111113,77.59385647509743L199.91111111111113,12.973250089491899L199.91111111111113,-20.54747097825677L199.91111111111113,21.515791949417206L199.91111111111113,12.071422346106743L199.91111111111113,-41.88146908064394L206.15833333333333,-4.753215392667869L206.15833333333333,7.189791557646487L206.15833333333333,29.073551793966715L206.15833333333333,-4.555926277593329L212.40555555555554,-16.885594876760592L212.40555555555554,12.973591163066402L212.40555555555554,31.836030572836023L212.40555555555554,37.68518565069698L212.40555555555554,30.137031707591177L212.40555555555554,69.85223660434865L212.40555555555554,31.85419450500953L212.40555555555554,59.62252204358191L212.40555555555554,72.28896368944412L212.40555555555554,17.78035257460931L212.40555555555554,14.434504877342306L212.40555555555554,61.7926070373139L212.40555555555554,-124.19662230963223L218.65277777777777,-24.374247034754887L218.65277777777777,1.8497320625981502L218.65277777777777,-9.885584987771438L218.65277777777777,-47.69002992209383L218.65277777777777,2.067607875486658L218.65277777777777,-22.821304552662127L218.65277777777777,-17.1522734027551L218.65277777777777,32.5934460043045L218.65277777777777,1.0591661953408789L218.65277777777777,33.274239050357295L218.65277777777777,43.33284117162751L218.65277777777777,44.368241459015195L218.65277777777777,21.32643610589693L218.65277777777777,0.2063501951276976L218.65277777777777,-1.3835466601145185L218.65277777777777,12.737209741014738L218.65277777777777,52.63106877788216L218.65277777777777,25.959983067419017L218.65277777777777,-31.70264847713358L224.9,-34.91667858925129L224.9,12.881681206425043L224.9,-38.181481624484064L231.1472222222222,-7.8793099794919215L231.1472222222222,0.8721218398729036L231.1472222222222,-27.28841163805015L231.1472222222222,-13.415860389292419L231.1472222222222,35.41336117469061L231.1472222222222,-21.55254867146732L231.1472222222222,18.515152580318926L231.1472222222222,60.80732215808517L231.1472222222222,-151.8808408560355L231.1472222222222,-45.407354607320514L231.1472222222222,8.445778043188653L231.1472222222222,-37.037714942027264L231.1472222222222,3.3832440687840517L231.1472222222222,48.78161389670524L237.39444444444445,10.79931763793084L237.39444444444445,-5.384881165116724L237.39444444444445,-26.901212805801407L237.39444444444445,17.19260400635369L237.39444444444445,-0.6860019343950228L237.39444444444445,19.720139693149463L237.39444444444445,-10.55110814158408L237.39444444444445,-12.398457327742335L237.39444444444445,9.247588382208988L237.39444444444445,4.594914163377666L237.39444444444445,-15.776361035569437L237.39444444444445,30.205646585664795L237.39444444444445,34.06579941942789L237.39444444444445,-9.7887615082592L237.39444444444445,19.3573729420942L237.39444444444445,12.719969867780321L237.39444444444445,36.545518991419414L237.39444444444445,10.824361344020815L237.39444444444445,17.720936283970616L237.39444444444445,-11.8060389032932L243.64166666666668,-25.272199520672615L243.64166666666668,19.389045933958755L243.64166666666668,-13.48698873753736L243.64166666666668,-2.4027772005996155L243.64166666666668,20.590175718271666L243.64166666666668,30.771193388822013L243.64166666666668,61.34463537318847L243.64166666666668,86.43687451591099L243.64166666666668,82.02659900373226L243.64166666666668,34.30419816366435L243.64166666666668,17.067619510838995L243.64166666666668,-79.4265890572371L249.88888888888889,-58.76212645198618L249.88888888888889,18.966054403628647L249.88888888888889,-18.987689459415833L249.88888888888889,22.98821388596741L249.88888888888889,30.743225613322522L249.88888888888889,22.130265578679285L249.88888888888889,-35.82469384607549L249.88888888888889,14.024622391838562L249.88888888888889,45.55053882430718L249.88888888888889,20.642736853544307L249.88888888888889,-64.2035424248073L249.88888888888889,-47.785847948532904L249.88888888888889,1.852816229735879L249.88888888888889,-2.6743874182253364L256.1361111111111,-32.94067863044617L256.1361111111111,1.6276604186446946L256.1361111111111,50.902058512625175L256.1361111111111,-11.229141708220794L256.1361111111111,48.85602937340391L256.1361111111111,26.75939270138531L256.1361111111111,22.758432661770513L256.1361111111111,51.900159812735794L256.1361111111111,25.821817918281113L256.1361111111111,29.505396771228533L262.3833333333333,-6.813959620120386L262.3833333333333,-11.179521659447062L262.3833333333333,35.611942915062144L262.3833333333333,30.054242601358908L262.3833333333333,-0.520566364309758L262.3833333333333,29.773262510191472L262.3833333333333,34.192499783927815L262.3833333333333,21.032069887694462L262.3833333333333,12.830262209163209L262.3833333333333,3.0682471997654943L262.3833333333333,25.69780703587037L262.3833333333333,32.795107446925044L262.3833333333333,44.85738125968945L262.3833333333333,-46.530406086868254L262.3833333333333,-6.734258939243205L262.3833333333333,44.8607740501065L262.3833333333333,-25.228645893365155L262.3833333333333,39.406119634848835L262.3833333333333,-6.175597771321549L262.3833333333333,23.955120630076664L262.3833333333333,57.330851652032834L262.3833333333333,21.789481981877486L262.3833333333333,7.388386500051013L262.3833333333333,-48.37882927169176L268.6305555555556,-26.26866355012217L268.6305555555556,7.610201317844627L268.6305555555556,9.295588943229859L268.6305555555556,43.96648248366523L268.6305555555556,-14.171031368184032L274.8777777777778,-15.394423062232988L274.8777777777778,8.90189243636857L274.8777777777778,-30.273145193562925L274.8777777777778,-21.877833770934387L274.8777777777778,27.09141234086536L274.8777777777778,9.25359825567358L274.8777777777778,-37.39202387406854L274.8777777777778,-9.42176320826124L274.8777777777778,36.84248795464569L274.8777777777778,-10.667540324002942L274.8777777777778,37.122878690796824L274.8777777777778,26.5807513810621L274.8777777777778,47.685880671586176L274.8777777777778,-38.48208762011194" style="fill: none;" fill="none"></path></g></g></g></g><g opacity="0.2"><g><g><g><path stroke="rgb(0, 119, 187)" stroke-width="2px" d="M31.23611111111111,-100.38676056861874L31.23611111111111,4.5859595775604305L31.23611111111111,39.28711872696877L31.23611111111111,-115.14980215430256L31.23611111111111,-175.69308224916455L31.23611111111111,52.25779067873955L31.23611111111111,-66.67260873913762L31.23611111111111,-120.06394971013066L31.23611111111111,64.44728624224663L31.23611111111111,-152.92080674171444L31.23611111111111,72.31823574900628L31.23611111111111,57.42194738388062L31.23611111111111,-203.54630116224286L37.483333333333334,15.197778457403189L37.483333333333334,90.45807566642762L37.483333333333334,-711.8646714448927L37.483333333333334,-20.626140421628918L37.483333333333334,13.647373580932623L37.483333333333334,-222.52916697263714L37.483333333333334,-65.2611212790012L37.483333333333334,0.9276602804660854L37.483333333333334,5.340708160400396L37.483333333333334,-40.24475056529042L43.730555555555554,-161.9715124726295L43.730555555555554,27.89879184365273L43.730555555555554,-115.46867657303807L43.730555555555554,17.91462015509606L43.730555555555554,-40.64409527778622L43.730555555555554,-14.88044012188908L43.730555555555554,81.35534513890744L43.730555555555554,4.941521698236471L43.730555555555554,31.762368196249014L43.730555555555554,-32.49169755578038L43.730555555555554,46.353523546457296L43.730555555555554,-30.771885699033703L49.97777777777778,-110.31003225445744L49.97777777777778,3.7099648654460964L49.97777777777778,-37.44490656852719L49.97777777777778,-4.366024321317639L49.97777777777778,74.40571587681771L49.97777777777778,-73.97098217010495L49.97777777777778,-240.28949621915814L49.97777777777778,14.849970602989202L49.97777777777778,-0.022501087188686597L56.225,-140.85762131810185L56.225,29.276545608043676L56.225,82.4776301175356L56.225,-74.30275399088856L56.225,-251.84472445249554L56.225,21.707142108678823L56.225,3.532539868354803L56.225,-56.996339446306195L62.47222222222222,-76.18300530910489L62.47222222222222,85.9668653100729L62.47222222222222,-56.0123916327953L62.47222222222222,-232.81939480304715L62.47222222222222,67.37486463189126L62.47222222222222,-96.36498663425442L62.47222222222222,-81.2158933639526L62.47222222222222,42.44946148395539L62.47222222222222,55.85202496647835L62.47222222222222,-71.14209923744198L68.71944444444445,-168.27430669069287L68.71944444444445,91.19467821121216L68.71944444444445,-35.65237868428227L68.71944444444445,-108.8134061157703L68.71944444444445,41.7180020749569L68.71944444444445,-469.5568800330162L68.71944444444445,-112.36042905449864L68.71944444444445,75.64339172244073L68.71944444444445,-532.7636450886727L68.71944444444445,99.41141788065434L68.71944444444445,-174.19571760892865L68.71944444444445,-75.69029290080067L68.71944444444445,20.57438623309136L68.71944444444445,-53.762414789199795L68.71944444444445,-30.30106458663937L68.71944444444445,7.411387377977377L68.71944444444445,-24.15026981234547L68.71944444444445,-58.352439290285076L74.96666666666667,5.223471039533621L74.96666666666667,-334.57694295644757L74.96666666666667,-18.52344188690182L74.96666666666667,32.2781587779522L74.96666666666667,-64.71869189143177L74.96666666666667,-64.22922361493107L74.96666666666667,8.608524763584143L74.96666666666667,-244.88709036111828L74.96666666666667,-101.89422685503956L74.96666666666667,1.3556746780872402L74.96666666666667,-83.21129817366597L74.96666666666667,33.50889798402787L74.96666666666667,-48.16699955463406L81.21388888888887,-7.0861629009246485L81.21388888888887,28.898142689466482L81.21388888888887,-291.9324875235557L81.21388888888887,64.07560896277428L81.21388888888887,-259.416369831562L81.21388888888887,-31.322517728805508L81.21388888888887,13.091387414932257L81.21388888888887,-58.29182941317555L81.21388888888887,-146.33965018987652L81.21388888888887,70.2171988427639L87.46111111111111,-425.3531840801239L87.46111111111111,-49.44450173377987L87.46111111111111,4.7915003836154995L87.46111111111111,-56.58451933264729L87.46111111111111,-136.82709086537358L87.46111111111111,35.6146824002266L87.46111111111111,-79.66559398770329L87.46111111111111,-3.8427432239055292L87.46111111111111,23.028453254699713L87.46111111111111,-39.47599682807919L87.46111111111111,63.82528331279755L87.46111111111111,9.10355817675591L87.46111111111111,-122.56375107765194L87.46111111111111,9.011509233713156L87.46111111111111,-392.9663569092751L87.46111111111111,40.34431006908417L87.46111111111111,-135.98577935099598L87.46111111111111,-150.087756550312L87.46111111111111,12.982827687263494L87.46111111111111,-120.59764895439145L87.46111111111111,-212.5669920802116L87.46111111111111,63.81697517037392L93.70833333333333,-16.740672773122753L93.70833333333333,-422.1536261200905L93.70833333333333,14.201829993724829L93.70833333333333,-135.87210286259648L93.70833333333333,-486.54473665952685L93.70833333333333,26.162970328331L93.70833333333333,-30.945987439155545L93.70833333333333,-168.09142205715176L93.70833333333333,69.113719278574L93.70833333333333,-144.7728136539459L93.70833333333333,6.137524956464773L93.70833333333333,-70.9411476910114L99.95555555555556,-14.18780479431149L99.95555555555556,50.68900238871575L99.95555555555556,-9.507050102949108L99.95555555555556,-83.10265932083126L99.95555555555556,61.802026444673544L99.95555555555556,34.6180481851101L99.95555555555556,-118.38686544299122L99.95555555555556,-175.16948465108868L99.95555555555556,14.758501911163336L99.95555555555556,-32.829773014783825L106.20277777777777,-35.38448724746701L106.20277777777777,16.16735186576844L106.20277777777777,-80.65787631869313L106.20277777777777,10.179660433530813L106.20277777777777,-95.39884198307988L106.20277777777777,-77.41216201186177L106.20277777777777,94.35365814864636L106.20277777777777,-30.763445681333508L106.20277777777777,-70.01643825173375L106.20277777777777,40.40294181704522L106.20277777777777,28.954057806730276L106.20277777777777,-54.374395197629894L106.20277777777777,-9.714595413207974L106.20277777777777,10.976187103986746L106.20277777777777,-90.48577580451962L112.45,-66.06012720465657L112.45,16.85159992575646L112.45,41.83231156468392L112.45,-85.95736343264576L112.45,-34.23287320733067L112.45,5.90727072358132L112.45,88.42810634672642L112.45,-17.704681044816937L112.45,-24.587515479326214L112.45,33.499877715110784L112.45,107.46165182590485L112.45,-179.52790979146954L112.45,-75.87449628710743L112.45,20.753789359331137L112.45,-177.96576801538464L112.45,-301.43009219169613L112.45,62.57286381125451L112.45,-142.07279924154278L118.69722222222222,-163.92020705938336L118.69722222222222,89.7437732309103L118.69722222222222,-59.823402500152554L118.69722222222222,-83.58701083660122L118.69722222222222,59.306946212053305L118.69722222222222,-116.13920960426327L118.69722222222222,86.88487548530102L118.69722222222222,-32.33634847998616L118.69722222222222,49.6299120426178L118.69722222222222,7.54352640509606L118.69722222222222,-23.3055822908878L118.69722222222222,-4.047202652692761L118.69722222222222,0.7740255832672176L118.69722222222222,-36.251197940111126L118.69722222222222,-233.14169797897335L118.69722222222222,5.185279959440237L124.94444444444444,-131.86747271418568L124.94444444444444,-64.00867540240284L124.94444444444444,33.018401080369955L124.94444444444444,85.24346348047257L124.94444444444444,-153.0543172717094L124.94444444444444,-140.2017000675201L124.94444444444444,46.105809026956564L124.94444444444444,68.20523049831391L124.94444444444444,117.13844861984253L124.94444444444444,-114.65532261729237L124.94444444444444,58.2911900818348L124.94444444444444,-88.95792160034176L124.94444444444444,37.32017260193825L124.94444444444444,-88.86326152682301L124.94444444444444,-0.5439623057841914L124.94444444444444,82.0770985275507L124.94444444444444,31.477623099088675L124.94444444444444,20.062762910127645L124.94444444444444,19.242340439558035L124.94444444444444,-331.4603609204292L124.94444444444444,28.880102151632315L131.19166666666666,-10.526234990358319L131.19166666666666,-39.45091415047642L131.19166666666666,103.19596138000489L131.19166666666666,35.43509464859963L131.19166666666666,-48.26535213589665L131.19166666666666,-96.2120376884937L131.19166666666666,52.93180521726609L131.19166666666666,-80.0941358864307L131.19166666666666,-273.2016617417335L131.19166666666666,119.13715031147004L131.19166666666666,-37.625417447090115L131.19166666666666,-546.0958662986756L131.19166666666666,20.60134153962136L131.19166666666666,-19.218477344512905L131.19166666666666,-217.12992939949032L131.19166666666666,0.20493101477623554L131.19166666666666,-58.253638333082165L131.19166666666666,59.316704982519155L131.19166666666666,-140.5269836246967L137.4388888888889,-103.00464305877682L137.4388888888889,38.516756111383444L137.4388888888889,-18.32227934002873L137.4388888888889,-22.404584026336636L137.4388888888889,72.66082134246827L137.4388888888889,-396.0164738059044L137.4388888888889,49.20514177680016L137.4388888888889,18.71605258584023L137.4388888888889,-69.74424768090245L137.4388888888889,-4.40173614621159L137.4388888888889,12.368790024518972L137.4388888888889,-188.22851303815838L137.4388888888889,21.159173959493643L137.4388888888889,-101.90024036765095L137.4388888888889,31.0417225599289L137.4388888888889,-2.9983722031116145L143.6861111111111,4.141249769926077L143.6861111111111,-51.46670359969136L143.6861111111111,-3.1709178149699824L143.6861111111111,41.20268624424935L143.6861111111111,-194.15345821380612L143.6861111111111,-164.56676516532895L143.6861111111111,94.90295823812485L143.6861111111111,-67.20103297233578L143.6861111111111,-58.54318369030949L143.6861111111111,50.47169830799103L143.6861111111111,-15.676122790574993L143.6861111111111,1.2462445735931453L143.6861111111111,142.98266638219357L149.93333333333334,61.25260766744614L149.93333333333334,-242.71605405807492L149.93333333333334,-56.999056077003445L149.93333333333334,48.55156790614129L149.93333333333334,37.848570460081106L149.93333333333334,94.62685097157956L149.93333333333334,-124.69430167078968L149.93333333333334,-186.2899992227554L149.93333333333334,71.47536810636521L149.93333333333334,-2.5138624370097773L149.93333333333334,43.91488593220711L149.93333333333334,-18.835590666532482L149.93333333333334,-56.61859590411183L149.93333333333334,97.35521856844426L149.93333333333334,118.42126537263394L149.93333333333334,-180.72064254283902L149.93333333333334,-56.41925323605534L149.93333333333334,31.845977121591574L149.93333333333334,-83.39349705576893L149.93333333333334,53.19384139180184L149.93333333333334,-6.916808670759167L149.93333333333334,-21.985009646415676L156.18055555555557,57.38715868592263L156.18055555555557,-141.2834202110767L156.18055555555557,-40.5436590671539L156.18055555555557,15.454882496595388L156.18055555555557,-13.384446984529461L156.18055555555557,122.57515195906163L156.18055555555557,-10.58127973079678L156.18055555555557,-56.40638220906254L156.18055555555557,42.70999428033829L156.18055555555557,29.085563832521444L156.18055555555557,5.2982179462909755L156.18055555555557,-52.09213528633114L156.18055555555557,-40.42837370038029L156.18055555555557,2.299004906415945L156.18055555555557,35.19315626621247L156.18055555555557,-116.07329834103581L156.18055555555557,112.48107541501523L156.18055555555557,-162.7569088697433L156.18055555555557,-67.52304602265355L156.18055555555557,42.699075007438665L156.18055555555557,-123.9445379734039L156.18055555555557,24.775563293695456L156.18055555555557,8.352291101217276L162.42777777777775,9.747215026617056L162.42777777777775,-112.538196927309L162.42777777777775,-3.4251997232436793L162.42777777777775,38.1955870628357L162.42777777777775,-42.33283731937405L162.42777777777775,29.494535440206533L162.42777777777775,-294.93470731973645L162.42777777777775,-8.267422503232922L162.42777777777775,41.106575542688375L162.42777777777775,101.48259822428227L162.42777777777775,-79.15631804466244L162.42777777777775,-55.582847481965985L162.42777777777775,49.198732638359076L162.42777777777775,112.39192772805691L162.42777777777775,118.39758057296277L162.42777777777775,2.7460620939731655L162.42777777777775,14.20557525157929L162.42777777777775,-125.21272975802418L162.42777777777775,-36.87744725346562L162.42777777777775,62.095264309644705L162.42777777777775,-132.89019185900685L162.42777777777775,90.73821831643582L162.42777777777775,99.85304180681706L168.67499999999998,42.56506335139275L168.67499999999998,-162.55735520124432L168.67499999999998,94.91961408555508L168.67499999999998,95.95847476422787L168.67499999999998,59.60181933045388L168.67499999999998,-15.283345466852154L168.67499999999998,26.89247798323632L168.67499999999998,2.45295610427857L168.67499999999998,89.46941990554333L168.67499999999998,34.703925365209585L168.67499999999998,-96.91105577945706L168.67499999999998,-40.25324333310124L168.67499999999998,46.31480496525765L168.67499999999998,-260.62556061744687L168.67499999999998,-86.5195213615894L168.67499999999998,60.52916627526284L168.67499999999998,3.5274494826793727L168.67499999999998,30.504647308588034L168.67499999999998,26.603354626894003L168.67499999999998,8.242307120561605L174.92222222222222,-4.320289975404705L174.92222222222222,-0.3850262224673884L174.92222222222222,82.51628276109696L174.92222222222222,78.29883229136468L174.92222222222222,38.58211349844933L174.92222222222222,-155.44099602699276L174.92222222222222,-54.98872298598286L174.92222222222222,89.10351876318455L174.92222222222222,-143.23488417863842L174.92222222222222,0.16436617970467182L174.92222222222222,-185.5504954218864L174.92222222222222,-1.8942068874835627L174.92222222222222,61.5458455324173L174.92222222222222,-5.109510755538906L181.16944444444445,-88.92888266444203L181.16944444444445,9.701005929708487L181.16944444444445,-79.19137049317357L181.16944444444445,-48.704074805974926L181.16944444444445,36.06482546925545L181.16944444444445,-86.56446445584294L181.16944444444445,-77.37154442667958L181.16944444444445,29.69437923431397L181.16944444444445,156.05800774097443L181.16944444444445,-44.91260785460469L181.16944444444445,92.22643081247807L181.16944444444445,-108.07034168243405L187.41666666666666,-66.97507787346836L187.41666666666666,31.354820841550833L187.41666666666666,-21.674205994605984L187.41666666666666,-30.320186501741375L187.41666666666666,35.07014300823212L187.41666666666666,82.81275157034398L187.41666666666666,52.230255120992666L187.41666666666666,-44.76303491592404L187.41666666666666,-146.5931144714355L187.41666666666666,1.0445281505584774L187.41666666666666,110.47018844783307L187.41666666666666,-83.58682621121403L187.41666666666666,-147.67512474060055L187.41666666666666,162.93178234398366L187.41666666666666,-485.4760194182396L187.41666666666666,13.940980696678167L187.41666666666666,0.23956146240234943L187.41666666666666,74.27041184306145L187.41666666666666,42.45254736542702L187.41666666666666,-8.481165951490368L193.6638888888889,107.73690190315247L193.6638888888889,60.492663198709494L193.6638888888889,-65.24189386367794L193.6638888888889,25.734982305765158L193.6638888888889,23.03691964745522L193.6638888888889,77.15354826450348L193.6638888888889,-13.858353978395428L193.6638888888889,-109.36828452944752L193.6638888888889,26.52939897179604L193.6638888888889,-147.00414333343502L193.6638888888889,35.662553125619894L193.6638888888889,1.181177312135702L193.6638888888889,-36.75092611312863L193.6638888888889,-156.66759434938427L193.6638888888889,66.50770556330681L193.6638888888889,-75.23360881805417L193.6638888888889,-80.81153739094731L193.6638888888889,21.776851379871374L193.6638888888889,-30.188179349899258L193.6638888888889,-4.655358678102459L193.6638888888889,49.28756382465363L199.91111111111113,-169.01423249244687L199.91111111111113,-92.19659376740452L199.91111111111113,47.482428663969046L199.91111111111113,-14.451476222276654L199.91111111111113,41.049684548377996L199.91111111111113,-7.051954454183544L199.91111111111113,136.7788973093033L199.91111111111113,100.20931605398656L199.91111111111113,84.47732087373734L199.91111111111113,-83.95765948891636L199.91111111111113,-70.82855257987973L199.91111111111113,84.61068634092808L199.91111111111113,-2.0951320588588374L199.91111111111113,-189.99601099491116L199.91111111111113,23.73512011170388L199.91111111111113,74.06766679286957L199.91111111111113,-30.72947461009022L206.15833333333333,-65.38819629549977L206.15833333333333,23.79720699191094L206.15833333333333,-95.4397233188152L206.15833333333333,-20.00120986104008L206.15833333333333,53.127481752634054L206.15833333333333,25.104301983118063L206.15833333333333,61.89919214844704L206.15833333333333,-55.00014338493344L206.15833333333333,-293.7951994299888L206.15833333333333,40.412674212455755L206.15833333333333,40.934425556659704L206.15833333333333,6.670090073347097L206.15833333333333,-12.024338132142987L212.40555555555554,-49.96954995989796L212.40555555555554,22.17255633473397L212.40555555555554,57.762370222806936L212.40555555555554,60.12968968749047L212.40555555555554,46.458918267488485L212.40555555555554,18.814800792932516L212.40555555555554,129.42504394948483L212.40555555555554,-25.142868643999066L212.40555555555554,101.27501335144044L212.40555555555554,91.28862615823746L212.40555555555554,-63.982564097642864L212.40555555555554,9.415733331441885L212.40555555555554,132.82976027727128L212.40555555555554,-403.18046633005144L212.40555555555554,10.094469004869467L212.40555555555554,-84.62188888192173L218.65277777777777,-58.54133743643757L218.65277777777777,68.1543002665043L218.65277777777777,-57.91667062640187L218.65277777777777,-56.15270692706105L218.65277777777777,3.5455955207347927L218.65277777777777,-152.27124187946316L218.65277777777777,-42.573272323608364L218.65277777777777,26.173784101009375L218.65277777777777,-18.448536729812588L218.65277777777777,41.18570070862771L218.65277777777777,-27.488560563325848L218.65277777777777,-47.21868444085118L218.65277777777777,76.70406457185746L218.65277777777777,-60.15467319488522L218.65277777777777,-8.648726677894558L218.65277777777777,107.21202511489392L218.65277777777777,-46.24225351810452L218.65277777777777,81.59684833288193L218.65277777777777,58.4207443535328L218.65277777777777,45.92134189009667L218.65277777777777,-13.236271923780407L218.65277777777777,-3.768391942977871L218.65277777777777,33.91834434270859L218.65277777777777,112.4718573331833L218.65277777777777,-14.046645498275723L224.9,-248.30139402151104L224.9,18.46155967712403L224.9,-83.95670998692509L224.9,-26.469929552078213L224.9,84.57922089993954L224.9,-114.77622587084767L224.9,45.647568815946585L224.9,-135.11416289806363L224.9,8.129896634817129L224.9,3.639833593368536L224.9,-74.83431685566899L224.9,-133.26033938527104L224.9,25.998838359117514L224.9,-8.81299052238461L224.9,-59.14558995366093L224.9,37.067736947536474L224.9,26.288278216123587L224.9,-89.09219700694081L231.1472222222222,44.163180702924734L231.1472222222222,13.999269568920141L231.1472222222222,-69.52921185493466L231.1472222222222,-229.0464431405067L231.1472222222222,31.245944613218313L231.1472222222222,61.417741888761526L231.1472222222222,-23.323359078168835L231.1472222222222,108.65719352066517L231.1472222222222,-107.00141344070431L231.1472222222222,78.61670445799828L231.1472222222222,124.2455765247345L231.1472222222222,-470.91308537721636L231.1472222222222,12.65886288285256L231.1472222222222,-71.73746336102482L231.1472222222222,69.54379093050957L231.1472222222222,-70.1483135282993L231.1472222222222,3.819605970382696L231.1472222222222,-17.102327531576123L231.1472222222222,-82.87596572041508L231.1472222222222,89.22547701895238L231.1472222222222,-105.26295441985127L231.1472222222222,64.014682585001L231.1472222222222,116.879168638587L237.39444444444445,-46.174126750230755L237.39444444444445,-59.1757102668285L237.39444444444445,83.33332922458649L237.39444444444445,-27.503910845518078L237.39444444444445,50.32935213446618L237.39444444444445,-55.95797989368435L237.39444444444445,-48.09169877171513L237.39444444444445,12.590920740365988L237.39444444444445,-42.599990254640545L237.39444444444445,20.56148883104325L237.39444444444445,41.71665694713593L237.39444444444445,-2.3840971648692744L237.39444444444445,-46.33327383399006L237.39444444444445,99.17865801751614L237.39444444444445,39.85602867007256L237.39444444444445,-75.57060289978978L237.39444444444445,63.07657461762429L237.39444444444445,2.763865256309515L237.39444444444445,72.28384267687798L237.39444444444445,-27.75737512707707L237.39444444444445,28.065798693895346L237.39444444444445,-56.09650168418881L237.39444444444445,15.623682850599295L237.39444444444445,-590.0666705131531L243.64166666666668,-14.979979580640759L243.64166666666668,89.04934439957142L243.64166666666668,86.38091411590577L243.64166666666668,-62.80104074478146L243.64166666666668,-28.089489823579754L243.64166666666668,58.31732776165009L243.64166666666668,-7.998396939039196L243.64166666666668,6.765145772695547L243.64166666666668,55.079605096578604L243.64166666666668,46.042719894647604L243.64166666666668,107.20479834973813L243.64166666666668,124.07523322999478L243.64166666666668,75.4111857354641L243.64166666666668,-37.27940309643742L243.64166666666668,-39.21760041117665L243.64166666666668,10.345427656173712L249.88888888888889,-88.41061282753941L249.88888888888889,-67.27839100956913L249.88888888888889,135.55832568705083L249.88888888888889,-75.91830525398251L249.88888888888889,85.95206890404225L249.88888888888889,42.375743204355246L249.88888888888889,9.21082552671433L249.88888888888889,-122.75713298320767L249.88888888888889,88.79859674870968L249.88888888888889,92.83941347301007L249.88888888888889,-16.718966102600064L249.88888888888889,-23.15930623412129L249.88888888888889,76.31081249713898L249.88888888888889,-9.465192890167202L249.88888888888889,-61.99122104644772L249.88888888888889,13.047209197282797L249.88888888888889,-53.750625139474835L249.88888888888889,-216.08146820068356L249.88888888888889,141.84121992588044L249.88888888888889,-27.661343550682034L249.88888888888889,-192.36570421457287L249.88888888888889,14.539641702175146L249.88888888888889,-8.127423709630932L256.1361111111111,-46.46601948738095L256.1361111111111,42.53531228899956L256.1361111111111,-6.038967704772915L256.1361111111111,-43.09030253291127L256.1361111111111,25.873767846822744L256.1361111111111,-47.845329380035366L256.1361111111111,-35.24628195762631L256.1361111111111,53.480168992280966L256.1361111111111,124.81365565359593L256.1361111111111,-104.42594203948971L256.1361111111111,138.98378599584103L256.1361111111111,-6.385562306642498L256.1361111111111,16.756992602348333L256.1361111111111,95.61275053918362L256.1361111111111,-13.295694923400845L256.1361111111111,35.03076505064965L262.3833333333333,-61.29299420714375L262.3833333333333,-17.72786471843716L262.3833333333333,105.79913977682591L262.3833333333333,21.717692130804068L262.3833333333333,-46.38277981281277L262.3833333333333,75.21400582194329L262.3833333333333,40.8213556945324L262.3833333333333,1.2914250433445034L262.3833333333333,0.5275506913662014L262.3833333333333,-11.57477531433102L262.3833333333333,59.642146790027624L262.3833333333333,43.441058063507086L262.3833333333333,62.950791978836065L262.3833333333333,-183.61208710670468L262.3833333333333,-78.74916631579396L262.3833333333333,60.64252626299859L262.3833333333333,122.25332353413106L262.3833333333333,-130.36277580857274L262.3833333333333,136.3582679271698L262.3833333333333,-74.54817388057705L262.3833333333333,69.15119823217393L262.3833333333333,107.39444818496705L262.3833333333333,-31.52257252335545L268.6305555555556,-179.94442466497418L268.6305555555556,144.05897963941098L268.6305555555556,-22.037153130769696L268.6305555555556,-48.19107998013493L268.6305555555556,58.42849861979485L268.6305555555556,11.823670381307608L268.6305555555556,95.9728227943182L268.6305555555556,-101.37730214595791L268.6305555555556,-194.22472361326214L268.6305555555556,47.06264328360558L268.6305555555556,-43.562363272905316L274.8777777777778,-112.33075711727139L274.8777777777778,28.737070226669317L274.8777777777778,50.94718780517579L274.8777777777778,-154.29943088293072L274.8777777777778,-67.56556261181828L274.8777777777778,4.764043951034552L274.8777777777778,26.662487500905996L274.8777777777778,45.346365684270864L274.8777777777778,-89.03570163846013L274.8777777777778,-9.284866636991467L274.8777777777778,100.54528150856495L274.8777777777778,-17.503122872114147L274.8777777777778,-59.80401683449742L274.8777777777778,13.052457833290106L274.8777777777778,43.45387634038926L274.8777777777778,106.23886469900609L274.8777777777778,-81.93258274197575L274.8777777777778,108.80850721299649L274.8777777777778,10.767560416460043L274.8777777777778,79.34357460737229L274.8777777777778,-167.73404005765912L274.8777777777778,43.31669967770577L274.8777777777778,-39.947767442464794" style="fill: none;" fill="none"></path></g></g></g></g></g></g><g transform="translate(48, 177)" clip-path="url(#clip_1)"><clipPath id="clip_1"><rect width="281" height="23"></rect></clipPath><g><g><line x1="0" y1="0" x2="0" y2="5" style="visibility: inherit;" fill="rgb(0, 0, 0)" stroke="rgb(204, 204, 204)" stroke-width="1px"></line><line x1="31.23611111111111" y1="0" x2="31.23611111111111" y2="5" style="visibility: inherit;" fill="rgb(0, 0, 0)" stroke="rgb(204, 204, 204)" stroke-width="1px"></line><line x1="62.47222222222222" y1="0" x2="62.47222222222222" y2="5" style="visibility: inherit;" fill="rgb(0, 0, 0)" stroke="rgb(204, 204, 204)" stroke-width="1px"></line><line x1="93.70833333333333" y1="0" x2="93.70833333333333" y2="5" style="visibility: inherit;" fill="rgb(0, 0, 0)" stroke="rgb(204, 204, 204)" stroke-width="1px"></line><line x1="124.94444444444444" y1="0" x2="124.94444444444444" y2="5" style="visibility: inherit;" fill="rgb(0, 0, 0)" stroke="rgb(204, 204, 204)" stroke-width="1px"></line><line x1="156.18055555555557" y1="0" x2="156.18055555555557" y2="5" style="visibility: inherit;" fill="rgb(0, 0, 0)" stroke="rgb(204, 204, 204)" stroke-width="1px"></line><line x1="187.41666666666666" y1="0" x2="187.41666666666666" y2="5" style="visibility: inherit;" fill="rgb(0, 0, 0)" stroke="rgb(204, 204, 204)" stroke-width="1px"></line><line x1="218.65277777777777" y1="0" x2="218.65277777777777" y2="5" style="visibility: inherit;" fill="rgb(0, 0, 0)" stroke="rgb(204, 204, 204)" stroke-width="1px"></line><line x1="249.88888888888889" y1="0" x2="249.88888888888889" y2="5" style="visibility: inherit;" fill="rgb(0, 0, 0)" stroke="rgb(204, 204, 204)" stroke-width="1px"></line><line x1="281.125" y1="0" x2="281.125" y2="5" style="visibility: inherit;" fill="rgb(0, 0, 0)" stroke="rgb(204, 204, 204)" stroke-width="1px"></line></g><g transform="translate(0, 8)"><text x="0" y="0" dx="0em" dy="0.95em" style="text-anchor: middle; visibility: hidden; font-family: &quot;Helvetica Neue&quot;, sans-serif; font-size: 12px; font-weight: 200;" fill="rgb(50, 49, 63)" stroke="none" stroke-width="1px">-5</text><text x="31.23611111111111" y="0" dx="0em" dy="0.95em" style="text-anchor: middle; visibility: inherit; font-family: &quot;Helvetica Neue&quot;, sans-serif; font-size: 12px; font-weight: 200;" fill="rgb(50, 49, 63)" stroke="none" stroke-width="1px">0</text><text x="62.47222222222222" y="0" dx="0em" dy="0.95em" style="text-anchor: middle; visibility: inherit; font-family: &quot;Helvetica Neue&quot;, sans-serif; font-size: 12px; font-weight: 200;" fill="rgb(50, 49, 63)" stroke="none" stroke-width="1px">5</text><text x="93.70833333333333" y="0" dx="0em" dy="0.95em" style="text-anchor: middle; visibility: inherit; font-family: &quot;Helvetica Neue&quot;, sans-serif; font-size: 12px; font-weight: 200;" fill="rgb(50, 49, 63)" stroke="none" stroke-width="1px">10</text><text x="124.94444444444444" y="0" dx="0em" dy="0.95em" style="text-anchor: middle; visibility: inherit; font-family: &quot;Helvetica Neue&quot;, sans-serif; font-size: 12px; font-weight: 200;" fill="rgb(50, 49, 63)" stroke="none" stroke-width="1px">15</text><text x="156.18055555555557" y="0" dx="0em" dy="0.95em" style="text-anchor: middle; visibility: inherit; font-family: &quot;Helvetica Neue&quot;, sans-serif; font-size: 12px; font-weight: 200;" fill="rgb(50, 49, 63)" stroke="none" stroke-width="1px">20</text><text x="187.41666666666666" y="0" dx="0em" dy="0.95em" style="text-anchor: middle; visibility: inherit; font-family: &quot;Helvetica Neue&quot;, sans-serif; font-size: 12px; font-weight: 200;" fill="rgb(50, 49, 63)" stroke="none" stroke-width="1px">25</text><text x="218.65277777777777" y="0" dx="0em" dy="0.95em" style="text-anchor: middle; visibility: inherit; font-family: &quot;Helvetica Neue&quot;, sans-serif; font-size: 12px; font-weight: 200;" fill="rgb(50, 49, 63)" stroke="none" stroke-width="1px">30</text><text x="249.88888888888889" y="0" dx="0em" dy="0.95em" style="text-anchor: middle; visibility: inherit; font-family: &quot;Helvetica Neue&quot;, sans-serif; font-size: 12px; font-weight: 200;" fill="rgb(50, 49, 63)" stroke="none" stroke-width="1px">35</text><text x="281.125" y="0" dx="0em" dy="0.95em" style="text-anchor: middle; visibility: hidden; font-family: &quot;Helvetica Neue&quot;, sans-serif; font-size: 12px; font-weight: 200;" fill="rgb(50, 49, 63)" stroke="none" stroke-width="1px">40</text></g><line x1="0" y1="0" x2="281.125" y2="0" fill="rgb(0, 0, 0)" stroke="rgb(204, 204, 204)" stroke-width="1px"></line></g></g></g></g></svg>